<?xml version="1.0" standalone="no"?>
<!DOCTYPE svg PUBLIC "-//W3C//DTD SVG 20010904//EN"
 "http://www.w3.org/TR/2001/REC-SVG-20010904/DTD/svg10.dtd">
<svg version="1.0" xmlns="http://www.w3.org/2000/svg"
 width="512.000000pt" height="512.000000pt" viewBox="0 0 512.000000 512.000000"
 preserveAspectRatio="xMidYMid meet">
<metadata>
Created by potrace 1.16, written by Peter Selinger 2001-2019
</metadata>
<g transform="translate(0.000000,512.000000) scale(0.100000,-0.100000)"
fill="#000000" stroke="none">
<path d="M1760 4055 c-456 -73 -867 -381 -1059 -796 -185 -401 -370 -1244
-331 -1506 32 -210 152 -382 345 -492 210 -120 437 -188 695 -206 l85 -6 105
132 c158 198 145 178 123 185 -110 38 -234 93 -303 133 -97 57 -241 170 -278
218 l-24 33 93 -44 c255 -121 673 -250 969 -300 636 -108 1170 -9 1750 325
l55 31 -60 -62 c-108 -111 -303 -227 -497 -295 -43 -15 -78 -31 -78 -34 0 -7
147 -194 213 -271 l28 -32 127 11 c221 20 400 70 584 162 216 108 325 211 398
373 60 134 68 230 40 451 -38 304 -102 582 -200 875 -113 341 -198 498 -370
683 -224 243 -586 417 -900 434 l-105 5 -28 -29 -28 -30 128 -42 c242 -78 523
-213 696 -334 31 -22 57 -41 57 -43 0 -2 -38 15 -85 36 -356 164 -792 268
-1213 289 -506 25 -982 -54 -1454 -243 -87 -35 -158 -62 -158 -60 0 2 48 35
108 75 190 126 425 230 690 305 l132 38 -22 23 c-18 19 -31 23 -82 22 -34 -1
-99 -7 -146 -14z m253 -1349 c79 -38 151 -111 190 -193 29 -62 32 -77 32 -163
0 -86 -3 -101 -32 -162 -39 -83 -108 -154 -188 -194 -53 -26 -71 -29 -150 -29
-77 0 -98 4 -147 27 -159 74 -257 255 -228 420 27 147 132 268 273 314 67 22
180 13 250 -20z m1380 -4 c154 -76 246 -253 216 -416 -23 -126 -110 -239 -227
-294 -49 -23 -70 -27 -147 -27 -79 0 -97 3 -150 29 -80 40 -149 111 -188 194
-29 61 -32 76 -32 162 0 85 3 102 31 160 37 78 71 120 131 161 114 79 246 90
366 31z"/>
</g>
</svg>
