<?xml version="1.0" standalone="no"?>
<!DOCTYPE svg PUBLIC "-//W3C//DTD SVG 20010904//EN"
 "http://www.w3.org/TR/2001/REC-SVG-20010904/DTD/svg10.dtd">
<svg version="1.0" xmlns="http://www.w3.org/2000/svg"
 width="512.000000pt" height="512.000000pt" viewBox="0 0 512.000000 512.000000"
 preserveAspectRatio="xMidYMid meet">
<metadata>
Created by potrace 1.16, written by Peter Selinger 2001-2019
</metadata>
<g transform="translate(0.000000,512.000000) scale(0.100000,-0.100000)"
fill="#000000" stroke="none">
<path d="M2238 5104 c-647 -83 -1264 -428 -1670 -934 -248 -309 -433 -691
-512 -1061 -77 -355 -76 -761 4 -1119 172 -775 697 -1457 1388 -1804 170 -85
440 -186 499 -186 10 0 13 84 13 426 l0 426 -38 -7 c-111 -18 -253 -2 -349 41
-117 51 -198 124 -294 265 -92 134 -150 181 -250 203 -25 5 -26 9 -33 98 -4
51 -9 115 -13 142 l-6 49 79 -5 c92 -7 165 -35 259 -103 70 -50 125 -111 206
-229 96 -141 174 -184 317 -173 94 7 142 23 142 47 0 51 46 158 106 247 36 52
63 97 61 100 -3 2 -49 13 -103 24 -187 38 -406 125 -528 209 -224 153 -385
388 -444 644 -24 104 -23 404 1 506 40 165 94 288 189 426 l49 71 -22 84 c-39
150 -30 330 24 502 l21 68 61 -6 c142 -15 257 -61 483 -192 l113 -65 122 26
c356 77 553 73 989 -21 22 -4 53 9 151 66 222 127 334 171 472 185 l61 7 21
-68 c52 -163 61 -358 24 -502 l-22 -83 70 -112 c230 -366 263 -730 101 -1091
-154 -341 -462 -563 -906 -654 -53 -11 -98 -22 -101 -25 -3 -3 18 -37 47 -77
63 -86 94 -146 116 -225 15 -52 18 -131 22 -641 3 -447 6 -583 16 -583 25 0
193 53 288 91 799 318 1408 1042 1598 1899 60 270 77 615 45 880 -144 1164
-1070 2090 -2235 2235 -153 19 -482 18 -632 -1z"/>
</g>
</svg>
