<?xml version="1.0" standalone="no"?>
<!DOCTYPE svg PUBLIC "-//W3C//DTD SVG 20010904//EN"
 "http://www.w3.org/TR/2001/REC-SVG-20010904/DTD/svg10.dtd">
<svg version="1.0" xmlns="http://www.w3.org/2000/svg"
 width="512.000000pt" height="512.000000pt" viewBox="0 0 512.000000 512.000000"
 preserveAspectRatio="xMidYMid meet">

<g transform="translate(0.000000,512.000000) scale(0.100000,-0.100000)"
fill="#000000" stroke="none">
<path d="M2330 5105 c-231 -29 -435 -90 -639 -191 -210 -104 -365 -218 -531
-390 -307 -318 -491 -713 -539 -1156 -48 -433 71 -913 316 -1274 78 -115 1611
-2084 1623 -2084 12 0 1554 1980 1628 2090 373 555 425 1309 131 1928 -290
612 -865 1011 -1558 1082 -133 13 -299 11 -431 -5z m491 -918 c230 -60 430
-193 573 -380 407 -534 216 -1300 -396 -1587 -392 -183 -862 -102 -1171 204
-285 282 -385 687 -265 1066 35 108 63 168 124 260 153 231 387 389 667 450
131 28 333 23 468 -13z"/>
<path d="M2465 3914 c-11 -2 -45 -9 -75 -15 -219 -45 -434 -227 -522 -442 -86
-212 -74 -429 35 -642 58 -112 190 -244 303 -302 123 -64 217 -87 354 -87 213
0 373 66 526 219 81 80 98 103 142 195 80 165 100 312 66 478 -58 282 -263
498 -549 579 -50 14 -243 26 -280 17z"/>
</g>
</svg>
